<?xml version="1.0" encoding="utf-8"?>
<!-- Generator: Adobe Illustrator 25.0.1, SVG Export Plug-In . SVG Version: 6.00 Build 0)  -->
<svg version="1.1" id="Capa_1" xmlns="http://www.w3.org/2000/svg" xmlns:xlink="http://www.w3.org/1999/xlink" x="0px" y="0px"
	 viewBox="0 0 52 52" style="enable-background:new 0 0 52 52;" xml:space="preserve">
<style type="text/css">
	.st0{fill:none;stroke:#FFFFFF;stroke-width:2;stroke-miterlimit:10;}
	.st1{fill-rule:evenodd;clip-rule:evenodd;fill:#FFFFFF;}
	.st2{fill:none;stroke:#FFFFFF;stroke-linejoin:round;stroke-miterlimit:10;}
	.st3{fill:none;stroke:#FFFFFF;stroke-width:2;stroke-linejoin:round;stroke-miterlimit:10;}
	.st4{fill-rule:evenodd;clip-rule:evenodd;fill:none;stroke:#FFFFFF;stroke-width:2;stroke-linejoin:round;stroke-miterlimit:10;}
	.st5{fill:#FFFFFF;}
	.st6{fill:none;stroke:#3B6D70;stroke-width:2;stroke-linejoin:round;stroke-miterlimit:10;}
	.st7{fill-rule:evenodd;clip-rule:evenodd;fill:#3B6D70;}
	.st8{fill:none;stroke:#3B6D70;stroke-linejoin:round;stroke-miterlimit:10;}
	.st9{fill-rule:evenodd;clip-rule:evenodd;fill:none;stroke:#3B6D70;stroke-width:2;stroke-linejoin:round;stroke-miterlimit:10;}
	.st10{fill:#3B6D70;}
</style>
<g>
	<circle class="st6" cx="26" cy="26" r="24.2"/>
	<circle class="st7" cx="26" cy="26" r="1.3"/>
	<path class="st8" d="M34.9,34.9l-1.6,1.6l-2.7-2.2l0,0c-0.6,0.3-1.2,0.6-1.9,0.8l0,0l-0.3,3.5H26h-2.3l-0.3-3.5
		c-0.7-0.2-1.3-0.4-1.9-0.8l0,0l-2.7,2.2l-1.6-1.6l-1.6-1.6l2.2-2.6l0,0c-0.4-0.6-0.7-1.3-0.9-2l0,0l-3.3-0.3l0-2.3l0-2.3l3.2-0.3
		l0,0c0.2-0.8,0.5-1.5,0.9-2.2l0,0l-2-2.4l1.6-1.6l1.6-1.6l2.3,1.9l0,0c0.7-0.4,1.5-0.8,2.3-1l0,0l0.3-3H26h2.3l0.3,3l0,0
		c0.8,0.2,1.6,0.6,2.3,1l0,0l2.3-1.9l1.6,1.6l1.6,1.6l-2,2.4l0,0c0.4,0.7,0.7,1.4,0.9,2.2l0,0l3.2,0.3l0,2.3l0,2.3v0h11.5"/>
</g>
</svg>
