<?xml version="1.0" encoding="utf-8"?>
<!-- Generator: Adobe Illustrator 25.0.1, SVG Export Plug-In . SVG Version: 6.00 Build 0)  -->
<svg version="1.1" id="Capa_1" xmlns="http://www.w3.org/2000/svg" xmlns:xlink="http://www.w3.org/1999/xlink" x="0px" y="0px"
	 viewBox="0 0 38 38" style="enable-background:new 0 0 38 38;" xml:space="preserve">
<style type="text/css">
	.st0{fill:#343434;}
	.st1{fill:none;stroke:#343434;stroke-miterlimit:10;}
	.st2{fill-rule:evenodd;clip-rule:evenodd;fill:#343434;}
</style>
<g>
	<circle class="st1" cx="19" cy="19" r="17.3"/>
	<g>
		<g>
			<path class="st0" d="M23.4,13.6c-0.5,0-1,0.4-1,1c0,0.5,0.4,1,1,1c0.5,0,1-0.4,1-1C24.4,14.1,24,13.6,23.4,13.6z"/>
			<path class="st0" d="M19.1,14.9c-2.3,0-4.1,1.9-4.1,4.1c0,2.3,1.9,4.1,4.1,4.1c2.3,0,4.1-1.9,4.1-4.1
				C23.2,16.7,21.3,14.9,19.1,14.9z M19.1,21.6c-1.5,0-2.6-1.2-2.6-2.6s1.2-2.6,2.6-2.6c1.5,0,2.6,1.2,2.6,2.6S20.5,21.6,19.1,21.6z
				"/>
			<path class="st0" d="M22.3,27.4h-6.7c-2.8,0-5-2.3-5-5v-6.7c0-2.8,2.3-5,5-5h6.7c2.8,0,5,2.3,5,5v6.7
				C27.4,25.1,25.1,27.4,22.3,27.4z M15.7,12.2c-1.9,0-3.5,1.6-3.5,3.5v6.7c0,1.9,1.6,3.5,3.5,3.5h6.7c1.9,0,3.5-1.6,3.5-3.5v-6.7
				c0-1.9-1.6-3.5-3.5-3.5H15.7z"/>
		</g>
	</g>
</g>
</svg>
