<?xml version="1.0" encoding="utf-8"?>
<!-- Generator: Adobe Illustrator 25.0.1, SVG Export Plug-In . SVG Version: 6.00 Build 0)  -->
<svg version="1.1" id="Layer_1" xmlns="http://www.w3.org/2000/svg" xmlns:xlink="http://www.w3.org/1999/xlink" x="0px" y="0px"
	 viewBox="0 0 9000 5337" style="enable-background:new 0 0 9000 5337;" xml:space="preserve">
<style type="text/css">
	.st0{fill-rule:evenodd;clip-rule:evenodd;fill:#FFFFFF;}
	.st1{clip-path:url(#SVGID_2_);fill:url(#SVGID_3_);}
	.st2{clip-path:url(#SVGID_5_);fill:url(#SVGID_6_);}
	.st3{clip-path:url(#SVGID_8_);fill:url(#SVGID_9_);}
	.st4{clip-path:url(#SVGID_11_);fill:url(#SVGID_12_);}
	.st5{clip-path:url(#SVGID_14_);fill:url(#SVGID_15_);}
	.st6{clip-path:url(#SVGID_17_);fill:url(#SVGID_18_);}
</style>
<g>
	<rect x="0" y="0" class="st0" width="9000" height="5337"/>
	<g>
		<defs>
			<polygon id="SVGID_1_" points="5186.8,2326.5 3849.4,1746.7 3022.8,3264.6 2196.3,4782.6 2498.2,5337 6524.3,5337 6524.3,4782.6 
				6524.3,2906.3 			"/>
		</defs>
		<clipPath id="SVGID_2_">
			<use xlink:href="#SVGID_1_"  style="overflow:visible;"/>
		</clipPath>
		
			<linearGradient id="SVGID_3_" gradientUnits="userSpaceOnUse" x1="1273.8903" y1="4424.4141" x2="4271.2295" y2="-138.7202" gradientTransform="matrix(6.123234e-17 -1 1 6.123234e-17 2500 6500)">
			<stop  offset="0" style="stop-color:#E6E6E6"/>
			<stop  offset="1" style="stop-color:#FFFFFF"/>
		</linearGradient>
		<rect x="2196.3" y="1746.7" class="st1" width="4328" height="3590.3"/>
	</g>
	<g>
		<defs>
			<polygon id="SVGID_4_" points="6152.6,3124.1 5326.1,4642.1 5704.5,5337 9000,5337 9000,2482.2 8316.6,2186 6979.2,1606.1 			"/>
		</defs>
		<clipPath id="SVGID_5_">
			<use xlink:href="#SVGID_4_"  style="overflow:visible;"/>
		</clipPath>
		
			<linearGradient id="SVGID_6_" gradientUnits="userSpaceOnUse" x1="1595.6816" y1="6266.6323" x2="4909.9526" y2="2557.1646" gradientTransform="matrix(6.123234e-17 -1 1 6.123234e-17 2500 6500)">
			<stop  offset="0" style="stop-color:#E6E6E6"/>
			<stop  offset="1" style="stop-color:#FEFEFE"/>
		</linearGradient>
		<rect x="5326.1" y="1606.1" class="st2" width="3673.9" height="3730.9"/>
	</g>
	<g>
		<defs>
			<polygon id="SVGID_7_" points="9000,184.6 8574.2,0 7747.6,1518 6921,3035.9 7747.6,4553.9 8174,5337 9000,5337 			"/>
		</defs>
		<clipPath id="SVGID_8_">
			<use xlink:href="#SVGID_7_"  style="overflow:visible;"/>
		</clipPath>
		
			<linearGradient id="SVGID_9_" gradientUnits="userSpaceOnUse" x1="2150.635" y1="7987.5776" x2="4777.5073" y2="4038.2749" gradientTransform="matrix(6.123234e-17 -1 1 6.123234e-17 2500 6500)">
			<stop  offset="0" style="stop-color:#E6E6E6"/>
			<stop  offset="1" style="stop-color:#FFFFFF"/>
		</linearGradient>
		<rect x="6921" y="0" class="st3" width="2079" height="5337"/>
	</g>
	<g>
		<defs>
			<polygon id="SVGID_10_" points="3813.2,3010.5 5150.6,3590.3 5977.2,2072.4 6803.7,554.4 6501.8,0 2475.7,0 2475.7,554.4 
				2475.7,2430.7 			"/>
		</defs>
		<clipPath id="SVGID_11_">
			<use xlink:href="#SVGID_10_"  style="overflow:visible;"/>
		</clipPath>
		
			<linearGradient id="SVGID_12_" gradientUnits="userSpaceOnUse" x1="6389.0605" y1="-424.3409" x2="3391.7205" y2="4138.7944" gradientTransform="matrix(6.123234e-17 -1 1 6.123234e-17 2500 6500)">
			<stop  offset="0" style="stop-color:#E6E6E6"/>
			<stop  offset="1" style="stop-color:#FFFFFF"/>
		</linearGradient>
		<rect x="2475.7" y="0" class="st4" width="4328" height="3590.3"/>
	</g>
	<g>
		<defs>
			<polygon id="SVGID_13_" points="2847.4,2212.9 3673.9,694.9 3295.5,0 0,0 0,2854.8 683.4,3151 2020.8,3730.9 			"/>
		</defs>
		<clipPath id="SVGID_14_">
			<use xlink:href="#SVGID_13_"  style="overflow:visible;"/>
		</clipPath>
		
			<linearGradient id="SVGID_15_" gradientUnits="userSpaceOnUse" x1="6067.2559" y1="-2266.5625" x2="2752.9834" y2="1442.9067" gradientTransform="matrix(6.123234e-17 -1 1 6.123234e-17 2500 6500)">
			<stop  offset="0" style="stop-color:#E6E6E6"/>
			<stop  offset="1" style="stop-color:#FEFEFE"/>
		</linearGradient>
		<rect x="0" y="0" class="st5" width="3673.9" height="3730.9"/>
	</g>
	<g>
		<defs>
			<polygon id="SVGID_16_" points="0,5152.4 425.8,5337 1252.4,3819 2078.9,2301.1 1252.4,783.1 826,0 0,0 			"/>
		</defs>
		<clipPath id="SVGID_17_">
			<use xlink:href="#SVGID_16_"  style="overflow:visible;"/>
		</clipPath>
		
			<linearGradient id="SVGID_18_" gradientUnits="userSpaceOnUse" x1="5512.7271" y1="-3987.6248" x2="2885.3049" y2="-38.2727" gradientTransform="matrix(6.123234e-17 -1 1 6.123234e-17 2500 6500)">
			<stop  offset="0" style="stop-color:#E6E6E6"/>
			<stop  offset="1" style="stop-color:#FFFFFF"/>
		</linearGradient>
		<rect x="0" y="0" class="st6" width="2078.9" height="5337"/>
	</g>
</g>
</svg>
