<?xml version="1.0" encoding="utf-8"?>
<!-- Generator: Adobe Illustrator 25.0.1, SVG Export Plug-In . SVG Version: 6.00 Build 0)  -->
<svg version="1.1" id="Capa_1" xmlns="http://www.w3.org/2000/svg" xmlns:xlink="http://www.w3.org/1999/xlink" x="0px" y="0px"
	 viewBox="0 0 240 72.5" style="enable-background:new 0 0 240 72.5;" xml:space="preserve">
<style type="text/css">
	.st0{fill:#3B6D70;}
	.st1{fill:#3B6D70;stroke:#3B6D70;stroke-width:0.25;stroke-miterlimit:10;}
</style>
<g>
	<path class="st0" d="M24,38.8v18.3h-4V16.6h4v18.3h47.1c-0.7-18.9-16.3-34-35.4-34C16.2,0.8,0.3,16.7,0.3,36.3
		c0,19.6,15.9,35.5,35.5,35.5c18.7,0,34-14.5,35.4-32.9H24z"/>
	<g>
		<path class="st1" d="M85.5,45.8V30h1.3v6.9h9.6V30h1.3v15.9h-1.3v-7.8h-9.6v7.8H85.5z"/>
		<path class="st1" d="M118.7,45.8l-2.1-5h-7.8l-2.1,5h-1.4L112,30h1.5l6.6,15.9H118.7z M112.7,31.4l-3.4,8.3h6.8L112.7,31.4z"/>
		<path class="st1" d="M140.2,30v15.9h-1.8L129,31.5v14.3h-1.3V30h1.8l9.5,14.3V30H140.2z"/>
		<path class="st1" d="M154.4,46.1c-1.8,0-3.2-0.4-4.3-1.2c-1.1-0.8-1.7-2-1.8-3.5h1.4c0.1,1.1,0.6,2,1.4,2.6c0.8,0.6,2,0.9,3.4,0.9
			s2.5-0.3,3.4-0.9c0.8-0.6,1.3-1.4,1.3-2.3c0-1.4-0.8-2.3-2.4-2.7l-4.4-1.1c-1.1-0.3-1.9-0.7-2.5-1.4c-0.6-0.7-0.9-1.5-0.9-2.5
			c0-1.2,0.5-2.3,1.6-3.1c1-0.8,2.4-1.2,4-1.2c1.6,0,2.9,0.4,4,1.3c1.1,0.9,1.6,2,1.6,3.4h-1.4c-0.1-1.1-0.5-2-1.3-2.6
			c-0.8-0.6-1.8-0.9-3-0.9c-1.2,0-2.2,0.3-3,0.9c-0.8,0.6-1.2,1.3-1.2,2.3c0,1.4,0.8,2.3,2.4,2.7l4.4,1.1c1.1,0.3,1.9,0.7,2.5,1.4
			c0.6,0.7,0.9,1.5,0.9,2.6c0,1.3-0.5,2.4-1.6,3.2C157.7,45.7,156.3,46.1,154.4,46.1z"/>
		<path class="st1" d="M168.6,45.8V30h10.9v1.2h-9.5v5.9h8.7v1.2h-8.7v6.3h9.7v1.2H168.6z"/>
		<path class="st1" d="M187.8,45.8V30h6.6c1.6,0,2.9,0.4,3.9,1.2c0.9,0.8,1.4,1.9,1.4,3.2c0,1.1-0.3,2.1-1,2.8
			c-0.7,0.7-1.6,1.2-2.8,1.4l4.6,7.2h-1.5l-4.5-7.1h-5.2v7.1H187.8z M189.1,37.5h5.2c1.3,0,2.2-0.3,2.9-0.8c0.7-0.5,1-1.3,1-2.4
			c0-1.1-0.3-1.8-1-2.4c-0.7-0.5-1.6-0.8-2.9-0.8h-5.2V37.5z"/>
		<path class="st1" d="M212.2,45.8v-6.2l-6.3-9.7h1.6l5.4,8.4l5.4-8.4h1.5l-6.3,9.7v6.2H212.2z"/>
		<path class="st1" d="M226.9,45.8V30h1.3v8.6l9-8.6h1.8l-7,6.7l6.9,9.2h-1.6l-6.2-8.3l-2.9,2.7v5.6H226.9z"/>
	</g>
	<g>
		<path class="st1" d="M88,9.4c-1.1,1.3-1.7,3-1.7,5.1c0,2.1,0.6,3.8,1.7,5.1c1.1,1.3,2.5,1.9,4.3,1.9c1.3,0,2.4-0.4,3.3-1.1
			c0.9-0.8,1.5-1.8,1.8-3.1h1.4c-0.3,1.6-1,3-2.2,4c-1.2,1-2.6,1.5-4.4,1.5c-2.2,0-3.9-0.8-5.3-2.3c-1.4-1.5-2-3.5-2-5.9
			c0-2.4,0.7-4.4,2-5.9c1.4-1.5,3.1-2.3,5.3-2.3c1.7,0,3.2,0.5,4.4,1.5c1.2,1,1.9,2.3,2.2,4h-1.4c-0.3-1.3-0.9-2.4-1.8-3.1
			c-0.9-0.8-2.1-1.1-3.3-1.1C90.5,7.5,89.1,8.1,88,9.4z"/>
		<path class="st1" d="M118.4,22.4l-2.1-5h-7.8l-2.1,5h-1.4l6.6-15.9h1.5l6.6,15.9H118.4z M112.5,7.9l-3.4,8.3h6.8L112.5,7.9z"/>
		<path class="st1" d="M124.3,7.7V6.5h12.9v1.2h-5.8v14.6h-1.3V7.7H124.3z"/>
		<path class="st1" d="M155,22.4l-2.1-5h-7.8l-2.1,5h-1.4l6.6-15.9h1.5l6.6,15.9H155z M149,7.9l-3.4,8.3h6.8L149,7.9z"/>
		<path class="st1" d="M163.9,22.4V6.5h1.3v14.6h8.8v1.2H163.9z"/>
		<path class="st1" d="M193.7,22.4l-2.1-5h-7.8l-2.1,5h-1.4L187,6.5h1.5l6.6,15.9H193.7z M187.8,7.9l-3.4,8.3h6.8L187.8,7.9z
			 M188.9,2.1h1.8l-2.4,3.1h-1.1L188.9,2.1z"/>
	</g>
	<g>
		<path class="st0" d="M93.7,65.2l-1.3-3.1h-4.8l-1.3,3.1h-0.8l4-9.7h0.9l4.1,9.7H93.7z M90,56.4L88,61.5h4.2L90,56.4z"/>
		<path class="st0" d="M107.3,65.2v-9.7h3.6c0.9,0,1.7,0.2,2.2,0.6c0.5,0.4,0.8,1.1,0.8,1.9c0,0.5-0.1,0.9-0.4,1.3
			c-0.3,0.4-0.6,0.7-1,0.8c0.5,0.1,1,0.4,1.3,0.8c0.4,0.4,0.6,1,0.6,1.6c0,0.8-0.3,1.5-0.8,2c-0.6,0.5-1.3,0.7-2.4,0.7H107.3z
			 M112.6,59.4c0.4-0.3,0.6-0.8,0.6-1.3c0-0.6-0.2-1-0.6-1.3c-0.4-0.3-0.9-0.4-1.6-0.4h-2.8v3.6h2.8
			C111.6,59.9,112.2,59.7,112.6,59.4z M113,64c0.4-0.3,0.7-0.8,0.7-1.5c0-0.7-0.2-1.1-0.7-1.5c-0.4-0.3-1-0.5-1.7-0.5h-3.2v3.9h3.2
			C112,64.5,112.6,64.4,113,64z"/>
		<path class="st0" d="M135,56.8c0.8,0.9,1.3,2.1,1.3,3.6s-0.4,2.7-1.3,3.6c-0.8,0.9-1.9,1.4-3.3,1.4c-1.3,0-2.4-0.5-3.3-1.4
			c-0.8-0.9-1.3-2.1-1.3-3.6s0.4-2.7,1.3-3.6c0.8-0.9,1.9-1.4,3.3-1.4C133.1,55.4,134.2,55.9,135,56.8z M134.4,63.5
			c0.7-0.8,1.1-1.8,1.1-3.1s-0.4-2.4-1.1-3.1c-0.7-0.8-1.6-1.1-2.6-1.1c-1.1,0-1.9,0.4-2.6,1.1c-0.7,0.8-1.1,1.8-1.1,3.1
			s0.4,2.4,1.1,3.1s1.6,1.1,2.6,1.1C132.8,64.7,133.7,64.3,134.4,63.5z"/>
		<path class="st0" d="M152.9,61.2v-0.8h4v4.8h-0.7v-1.9c-0.3,0.6-0.8,1.1-1.3,1.5c-0.6,0.4-1.3,0.5-2.1,0.5c-1.3,0-2.4-0.5-3.2-1.4
			c-0.8-0.9-1.2-2.1-1.2-3.6c0-1.5,0.4-2.7,1.3-3.6c0.8-0.9,1.9-1.4,3.2-1.4c1.1,0,1.9,0.3,2.7,0.9c0.7,0.6,1.2,1.4,1.3,2.4H156
			c-0.2-0.8-0.5-1.4-1.1-1.9c-0.6-0.5-1.3-0.7-2-0.7c-1.1,0-1.9,0.4-2.6,1.2c-0.7,0.8-1,1.8-1,3.1c0,1.3,0.3,2.3,1,3.1
			c0.7,0.8,1.6,1.2,2.6,1.2c0.9,0,1.7-0.3,2.3-0.9c0.7-0.6,1-1.5,1-2.6H152.9z"/>
		<path class="st0" d="M177.1,65.2l-1.3-3.1H171l-1.3,3.1H169l4-9.7h0.9l4.1,9.7H177.1z M173.5,56.4l-2.1,5.1h4.2L173.5,56.4z"/>
		<path class="st0" d="M198.3,60.4c0,1.5-0.4,2.6-1.3,3.5c-0.8,0.9-2,1.3-3.3,1.3h-3.3v-9.7h3.3c1.4,0,2.5,0.4,3.3,1.3
			C197.9,57.8,198.3,59,198.3,60.4z M196.4,63.4c0.7-0.8,1-1.8,1-3c0-1.2-0.3-2.2-1-3s-1.6-1.2-2.8-1.2h-2.5v8.2h2.5
			C194.8,64.5,195.7,64.1,196.4,63.4z"/>
		<path class="st0" d="M218.8,65.2l-1.3-3.1h-4.8l-1.3,3.1h-0.8l4-9.7h0.9l4.1,9.7H218.8z M215.2,56.4l-2.1,5.1h4.2L215.2,56.4z"/>
		<path class="st0" d="M236.1,65.4c-1.1,0-2-0.3-2.6-0.8c-0.7-0.5-1-1.2-1.1-2.1h0.8c0.1,0.7,0.4,1.2,0.9,1.6
			c0.5,0.4,1.2,0.6,2.1,0.6c0.9,0,1.5-0.2,2.1-0.5c0.5-0.4,0.8-0.8,0.8-1.4c0-0.8-0.5-1.4-1.5-1.6l-2.7-0.7
			c-0.7-0.2-1.2-0.4-1.5-0.8c-0.4-0.4-0.6-0.9-0.6-1.5c0-0.8,0.3-1.4,1-1.9c0.6-0.5,1.4-0.8,2.4-0.8s1.8,0.3,2.4,0.8
			c0.7,0.5,1,1.2,1,2.1h-0.8c-0.1-0.7-0.3-1.2-0.8-1.6c-0.5-0.4-1.1-0.5-1.8-0.5c-0.7,0-1.4,0.2-1.8,0.5c-0.5,0.3-0.7,0.8-0.7,1.4
			c0,0.8,0.5,1.4,1.5,1.6l2.7,0.7c0.7,0.2,1.2,0.4,1.5,0.8c0.4,0.4,0.5,0.9,0.5,1.6c0,0.8-0.3,1.4-1,1.9
			C238.1,65.2,237.2,65.4,236.1,65.4z"/>
	</g>
</g>
</svg>
