<?xml version="1.0" encoding="utf-8"?>
<!-- Generator: Adobe Illustrator 25.0.1, SVG Export Plug-In . SVG Version: 6.00 Build 0)  -->
<svg version="1.1" id="Capa_1" xmlns="http://www.w3.org/2000/svg" xmlns:xlink="http://www.w3.org/1999/xlink" x="0px" y="0px"
	 viewBox="0 0 70 70" style="enable-background:new 0 0 70 70;" xml:space="preserve">
<style type="text/css">
	.st0{fill:#FFFFFF;}
	.st1{fill:none;stroke:#FFFFFF;stroke-width:2;stroke-miterlimit:10;}
	.st2{fill-rule:evenodd;clip-rule:evenodd;fill:#FFFFFF;}
</style>
<g>
	<g>
		<g>
			<g>
				<path class="st0" d="M35,52.8L35,52.8c-0.3,0-0.7-0.1-0.9-0.4c-0.5-0.6-12.9-14-12.9-21.4c0-7.6,6.2-13.8,13.8-13.8
					S48.8,23.4,48.8,31c0,7.4-12.4,20.8-12.9,21.4C35.7,52.6,35.3,52.8,35,52.8z M35,19.7c-6.3,0-11.4,5.1-11.4,11.4
					c0,4.9,7.5,14.3,11.4,18.7c3.9-4.3,11.4-13.8,11.4-18.7C46.4,24.8,41.3,19.7,35,19.7z"/>
			</g>
			<g>
				<path class="st0" d="M35,36.7c-3.4,0-6.2-2.8-6.2-6.2c0-3.4,2.8-6.2,6.2-6.2c3.4,0,6.2,2.8,6.2,6.2C41.2,33.9,38.4,36.7,35,36.7
					z M35,26.7c-2.1,0-3.8,1.7-3.8,3.8c0,2.1,1.7,3.8,3.8,3.8c2.1,0,3.8-1.7,3.8-3.8C38.8,28.4,37.1,26.7,35,26.7z"/>
			</g>
		</g>
	</g>
	<circle class="st1" cx="35" cy="35" r="32.6"/>
</g>
</svg>
