<?xml version="1.0" encoding="utf-8"?>
<!-- Generator: Adobe Illustrator 25.0.1, SVG Export Plug-In . SVG Version: 6.00 Build 0)  -->
<svg version="1.1" id="Capa_1" xmlns="http://www.w3.org/2000/svg" xmlns:xlink="http://www.w3.org/1999/xlink" x="0px" y="0px"
	 viewBox="0 0 70 70" style="enable-background:new 0 0 70 70;" xml:space="preserve">
<style type="text/css">
	.st0{fill:#FFFFFF;}
	.st1{fill:none;stroke:#FFFFFF;stroke-width:2;stroke-miterlimit:10;}
	.st2{fill-rule:evenodd;clip-rule:evenodd;fill:#FFFFFF;}
</style>
<g>
	<path class="st0" d="M46.6,22.1H23.4c-2.6,0-4.7,2.1-4.7,4.7v16.3c0,2.6,2.1,4.7,4.7,4.7h23.3c2.6,0,4.7-2.1,4.7-4.7V26.9
		C51.4,24.3,49.3,22.1,46.6,22.1z M46.6,24.4c0.2,0,0.4,0,0.6,0.1l-9.8,11.2c-0.6,0.7-1.5,1.1-2.4,1.1c-0.9,0-1.8-0.4-2.4-1.1
		l-9.8-11.2c0.2,0,0.4-0.1,0.6-0.1H46.6z M49.1,43.1c0,1.4-1.1,2.5-2.5,2.5H23.4c-1.4,0-2.5-1.1-2.5-2.5V26.9c0-0.3,0.1-0.6,0.2-0.9
		l9.9,11.2c1,1.2,2.5,1.8,4.1,1.8c1.6,0,3-0.7,4.1-1.8l9.9-11.2c0.1,0.3,0.2,0.6,0.2,0.9V43.1z"/>
	<circle class="st1" cx="35" cy="35" r="32.6"/>
</g>
</svg>
