<?xml version="1.0" encoding="utf-8"?>
<!-- Generator: Adobe Illustrator 25.0.1, SVG Export Plug-In . SVG Version: 6.00 Build 0)  -->
<svg version="1.1" id="Capa_1" xmlns="http://www.w3.org/2000/svg" xmlns:xlink="http://www.w3.org/1999/xlink" x="0px" y="0px"
	 viewBox="0 0 70 70" style="enable-background:new 0 0 70 70;" xml:space="preserve">
<style type="text/css">
	.st0{fill:#FFFFFF;}
	.st1{fill-rule:evenodd;clip-rule:evenodd;fill:#FFFFFF;}
	.st2{fill:none;stroke:#FFFFFF;stroke-width:2;stroke-miterlimit:10;}
</style>
<g>
	<g>
		<g>
			<path class="st0" d="M42.8,25.5c-1,0-1.7,0.8-1.7,1.7c0,1,0.8,1.7,1.7,1.7c1,0,1.7-0.8,1.7-1.7C44.6,26.3,43.8,25.5,42.8,25.5z"
				/>
			<path class="st0" d="M35.1,27.7c-4,0-7.3,3.3-7.3,7.3c0,4,3.3,7.3,7.3,7.3c4,0,7.3-3.3,7.3-7.3C42.4,31,39.1,27.7,35.1,27.7z
				 M35.1,39.7c-2.6,0-4.7-2.1-4.7-4.7s2.1-4.7,4.7-4.7c2.6,0,4.7,2.1,4.7,4.7S37.7,39.7,35.1,39.7z"/>
			<path class="st0" d="M40.9,49.8H29.1c-4.9,0-8.9-4-8.9-8.9V29.1c0-4.9,4-8.9,8.9-8.9h11.8c4.9,0,8.9,4,8.9,8.9v11.8
				C49.8,45.8,45.8,49.8,40.9,49.8z M29.1,23c-3.4,0-6.1,2.7-6.1,6.1v11.8c0,3.4,2.7,6.1,6.1,6.1h11.8c3.4,0,6.1-2.7,6.1-6.1V29.1
				c0-3.4-2.7-6.1-6.1-6.1H29.1z"/>
		</g>
	</g>
	<circle class="st2" cx="35" cy="35" r="32.6"/>
</g>
</svg>
