<?xml version="1.0" encoding="utf-8"?>
<!-- Generator: Adobe Illustrator 25.0.1, SVG Export Plug-In . SVG Version: 6.00 Build 0)  -->
<svg version="1.1" id="Capa_1" xmlns="http://www.w3.org/2000/svg" xmlns:xlink="http://www.w3.org/1999/xlink" x="0px" y="0px"
	 viewBox="0 0 70 70" style="enable-background:new 0 0 70 70;" xml:space="preserve">
<style type="text/css">
	.st0{fill:#FFFFFF;}
	.st1{fill-rule:evenodd;clip-rule:evenodd;fill:#FFFFFF;}
	.st2{fill:none;stroke:#FFFFFF;stroke-width:2;stroke-miterlimit:10;}
</style>
<g>
	<g>
		<path class="st0" d="M20.2,49.8l2.1-7.9c-1.2-2.2-1.8-4.6-1.8-7.1c0-8.1,6.6-14.6,14.6-14.6c8.1,0,14.6,6.6,14.6,14.6
			c0,8.1-6.6,14.6-14.6,14.6c-2.4,0-4.8-0.6-7-1.8L20.2,49.8z M28.6,44.7l0.5,0.3c1.8,1.1,3.9,1.7,6.1,1.7c6.5,0,11.9-5.3,11.9-11.9
			c0-6.5-5.3-11.9-11.9-11.9c-6.5,0-11.9,5.3-11.9,11.9c0,2.2,0.6,4.3,1.7,6.2l0.3,0.5l-1.2,4.4L28.6,44.7z"/>
		<path class="st1" d="M40.6,36.9c-0.6-0.4-1.4-0.8-2.1-0.5c-0.5,0.2-0.9,1.1-1.2,1.5c-0.2,0.2-0.4,0.3-0.7,0.1
			c-2-0.8-3.6-2.2-4.7-4.1c-0.2-0.3-0.2-0.5,0.1-0.8c0.3-0.4,0.8-0.9,0.9-1.4c0.1-0.5-0.2-1.2-0.4-1.7c-0.3-0.6-0.6-1.5-1.2-1.8
			c-0.6-0.3-1.3-0.1-1.8,0.3c-0.9,0.7-1.3,1.8-1.3,2.9c0,0.3,0,0.6,0.1,0.9c0.2,0.7,0.5,1.4,0.9,2.1c0.3,0.5,0.6,1,0.9,1.4
			c1.1,1.5,2.5,2.8,4,3.7c0.8,0.5,1.6,0.9,2.5,1.2c1,0.3,1.9,0.7,2.9,0.5c1.1-0.2,2.2-0.9,2.7-2c0.1-0.3,0.2-0.7,0.1-1
			C42.1,37.6,41.2,37.2,40.6,36.9z"/>
	</g>
	<circle class="st2" cx="35" cy="35" r="32.6"/>
</g>
</svg>
