<?xml version="1.0" encoding="utf-8"?>
<!-- Generator: Adobe Illustrator 25.0.1, SVG Export Plug-In . SVG Version: 6.00 Build 0)  -->
<svg version="1.1" id="Capa_1" xmlns="http://www.w3.org/2000/svg" xmlns:xlink="http://www.w3.org/1999/xlink" x="0px" y="0px"
	 viewBox="0 0 38 38" style="enable-background:new 0 0 38 38;" xml:space="preserve">
<style type="text/css">
	.st0{fill:#343434;stroke:#343434;stroke-miterlimit:10;}
	.st1{fill:#D4D4D4;}
	.st2{fill-rule:evenodd;clip-rule:evenodd;fill:#D4D4D4;}
</style>
<circle class="st0" cx="19" cy="19" r="17.3"/>
<g>
	<path class="st1" d="M10.9,27.4l1.2-4.5c-0.7-1.2-1-2.6-1-4c0-4.6,3.7-8.3,8.3-8.3s8.3,3.7,8.3,8.3s-3.7,8.3-8.3,8.3
		c-1.4,0-2.7-0.3-3.9-1L10.9,27.4z M15.6,24.5l0.3,0.2c1,0.6,2.2,0.9,3.4,0.9c3.7,0,6.7-3,6.7-6.7s-3-6.7-6.7-6.7s-6.7,3-6.7,6.7
		c0,1.2,0.3,2.4,1,3.5l0.2,0.3l-0.7,2.5L15.6,24.5z"/>
	<path class="st2" d="M22.4,20c-0.3-0.2-0.8-0.4-1.2-0.3c-0.3,0.1-0.5,0.6-0.7,0.9c-0.1,0.1-0.2,0.1-0.4,0.1c-1.2-0.5-2-1.2-2.7-2.3
		c-0.1-0.2-0.1-0.3,0-0.4c0.2-0.2,0.4-0.5,0.5-0.8s-0.1-0.7-0.2-0.9c-0.2-0.3-0.3-0.8-0.7-1c-0.3-0.2-0.7-0.1-1,0.2
		c-0.5,0.4-0.7,1-0.7,1.7c0,0.2,0,0.4,0.1,0.5c0.1,0.4,0.3,0.8,0.5,1.2c0.2,0.3,0.3,0.5,0.5,0.8c0.6,0.8,1.4,1.6,2.3,2.1
		c0.4,0.3,0.9,0.5,1.4,0.7c0.6,0.2,1.1,0.4,1.7,0.3s1.2-0.5,1.5-1.1c0.1-0.2,0.1-0.4,0.1-0.6C23.3,20.5,22.7,20.2,22.4,20z"/>
</g>
</svg>
