<?xml version="1.0" encoding="utf-8"?>
<!-- Generator: Adobe Illustrator 25.0.1, SVG Export Plug-In . SVG Version: 6.00 Build 0)  -->
<svg version="1.1" id="Capa_1" xmlns="http://www.w3.org/2000/svg" xmlns:xlink="http://www.w3.org/1999/xlink" x="0px" y="0px"
	 viewBox="0 0 52 52" style="enable-background:new 0 0 52 52;" xml:space="preserve">
<style type="text/css">
	.st0{fill:none;stroke:#FFFFFF;stroke-width:2;stroke-linejoin:round;stroke-miterlimit:10;}
</style>
<g>
	<circle class="st0" cx="26" cy="26" r="24.2"/>
	<g>
		<polyline class="st0" points="24.1,25 26,26.9 27.8,25 		"/>
		<line class="st0" x1="26" y1="28.6" x2="26" y2="26.9"/>
	</g>
	<path class="st0" d="M50.2,26H35.9c0,0,0.5-2.2,0.4-3.7c-0.5-5-4.7-9.1-9.8-9.3c-4.5-0.2-8.6,2.5-10.2,6.7c-0.9,2.3-1,4.7,0,7
		c0.5,1.2,1.3,2.1,2.2,3c2,2.2,3.1,4.7,3.1,7.7c0,0.9,0.6,1.5,1.5,1.5c1,0,1.9,0,2.9,0c1,0,2,0,2.9,0"/>
</g>
</svg>
