<?xml version="1.0" encoding="utf-8"?>
<!-- Generator: Adobe Illustrator 25.0.1, SVG Export Plug-In . SVG Version: 6.00 Build 0)  -->
<svg version="1.1" id="Capa_1" xmlns="http://www.w3.org/2000/svg" xmlns:xlink="http://www.w3.org/1999/xlink" x="0px" y="0px"
	 viewBox="0 0 23.1 29.2" style="enable-background:new 0 0 23.1 29.2;" xml:space="preserve">
<style type="text/css">
	.st0{fill:#343434;}
</style>
<g>
	<g>
		<g>
			<path class="st0" d="M11.6,28.5L11.6,28.5c-0.3,0-0.5-0.1-0.7-0.3c-0.4-0.4-10.1-11-10.1-16.7c0-6,4.9-10.8,10.8-10.8
				s10.8,4.9,10.8,10.8c0,5.8-9.7,16.3-10.1,16.7C12.1,28.4,11.8,28.5,11.6,28.5z M11.6,2.6c-4.9,0-8.9,4-8.9,8.9
				c0,3.8,5.9,11.2,8.9,14.6c3-3.4,8.9-10.8,8.9-14.6C20.5,6.6,16.5,2.6,11.6,2.6z"/>
		</g>
		<g>
			<path class="st0" d="M11.6,15.9c-2.7,0-4.9-2.2-4.9-4.9c0-2.7,2.2-4.9,4.9-4.9c2.7,0,4.9,2.2,4.9,4.9
				C16.4,13.7,14.3,15.9,11.6,15.9z M11.6,8.1c-1.6,0-2.9,1.3-2.9,2.9c0,1.6,1.3,2.9,2.9,2.9c1.6,0,2.9-1.3,2.9-2.9
				C14.5,9.4,13.2,8.1,11.6,8.1z"/>
		</g>
	</g>
</g>
</svg>
