<?xml version="1.0" encoding="utf-8"?>
<!-- Generator: Adobe Illustrator 25.0.1, SVG Export Plug-In . SVG Version: 6.00 Build 0)  -->
<svg version="1.1" id="Capa_1" xmlns="http://www.w3.org/2000/svg" xmlns:xlink="http://www.w3.org/1999/xlink" x="0px" y="0px"
	 viewBox="0 0 38 38" style="enable-background:new 0 0 38 38;" xml:space="preserve">
<style type="text/css">
	.st0{fill:#343434;}
	.st1{fill:none;stroke:#343434;stroke-miterlimit:10;}
	.st2{fill-rule:evenodd;clip-rule:evenodd;fill:#343434;}
</style>
<g>
	<path class="st0" d="M25.4,11.9H12.6c-1.4,0-2.6,1.2-2.6,2.6v8.9c0,1.4,1.2,2.6,2.6,2.6h12.8c1.4,0,2.6-1.2,2.6-2.6v-8.9
		C28,13.1,26.8,11.9,25.4,11.9z M25.4,13.2c0.1,0,0.2,0,0.3,0l-5.4,6.1c-0.3,0.4-0.8,0.6-1.3,0.6c-0.5,0-1-0.2-1.3-0.6l-5.4-6.1
		c0.1,0,0.2,0,0.3,0H25.4z M26.8,23.5c0,0.7-0.6,1.4-1.4,1.4H12.6c-0.7,0-1.4-0.6-1.4-1.4v-8.9c0-0.2,0-0.4,0.1-0.5l5.4,6.1
		c0.6,0.6,1.4,1,2.2,1c0.9,0,1.7-0.4,2.2-1l5.4-6.1c0.1,0.2,0.1,0.3,0.1,0.5V23.5z"/>
	<circle class="st1" cx="19" cy="19" r="17.3"/>
</g>
</svg>
